<svg width="12" height="10" viewBox="0 0 12 10" fill="none" xmlns="http://www.w3.org/2000/svg">
<path fill-rule="evenodd" clip-rule="evenodd" d="M0.000290394 9.65581C0.000290394 9.56083 0.0398744 9.46654 0.117653 9.3984L5.13437 4.99966L0.117653 0.601601C-0.0267929 0.474959 -0.0399875 0.256777 0.0877914 0.11637C0.214876 -0.0261023 0.433628 -0.0398678 0.577379 0.0867742L5.88854 4.74224C6.03715 4.87301 6.03715 5.12699 5.88854 5.25707L0.577379 9.91323C0.433628 10.0399 0.214876 10.0261 0.0877914 9.88363C0.0287631 9.81824 0.000290394 9.73703 0.000290394 9.65581" fill="#B6116E"/>
<path fill-rule="evenodd" clip-rule="evenodd" d="M6.00029 9.65581C6.00029 9.56083 6.03987 9.46654 6.11765 9.3984L11.1344 4.99966L6.11765 0.601601C5.97321 0.474959 5.96001 0.256777 6.08779 0.11637C6.21488 -0.0261023 6.43363 -0.0398678 6.57738 0.0867742L11.8885 4.74224C12.0372 4.87301 12.0372 5.12699 11.8885 5.25707L6.57738 9.91323C6.43363 10.0399 6.21488 10.0261 6.08779 9.88363C6.02876 9.81824 6.00029 9.73703 6.00029 9.65581" fill="#B6116E"/>
</svg>
