<svg width="62" height="16" viewBox="0 0 62 16" fill="none" xmlns="http://www.w3.org/2000/svg">
<path d="M3.786 8.686C4.082 8.686 4.34 8.65 4.56 8.578C4.78 8.502 4.962 8.396 5.106 8.26C5.254 8.12 5.364 7.952 5.436 7.756C5.508 7.556 5.544 7.334 5.544 7.09C5.544 6.858 5.508 6.648 5.436 6.46C5.364 6.272 5.256 6.112 5.112 5.98C4.968 5.848 4.786 5.748 4.566 5.68C4.346 5.608 4.086 5.572 3.786 5.572H2.58V8.686H3.786ZM3.786 4.324C4.366 4.324 4.868 4.392 5.292 4.528C5.716 4.664 6.066 4.854 6.342 5.098C6.618 5.342 6.822 5.634 6.954 5.974C7.09 6.314 7.158 6.686 7.158 7.09C7.158 7.51 7.088 7.896 6.948 8.248C6.808 8.596 6.598 8.896 6.318 9.148C6.038 9.4 5.686 9.596 5.262 9.736C4.842 9.876 4.35 9.946 3.786 9.946H2.58V13H0.966V4.324H3.786ZM9.46594 7.912C9.65794 7.544 9.88594 7.256 10.1499 7.048C10.4139 6.836 10.7259 6.73 11.0859 6.73C11.3699 6.73 11.5979 6.792 11.7699 6.916L11.6739 8.026C11.6539 8.098 11.6239 8.15 11.5839 8.182C11.5479 8.21 11.4979 8.224 11.4339 8.224C11.3739 8.224 11.2839 8.214 11.1639 8.194C11.0479 8.174 10.9339 8.164 10.8219 8.164C10.6579 8.164 10.5119 8.188 10.3839 8.236C10.2559 8.284 10.1399 8.354 10.0359 8.446C9.93594 8.534 9.84594 8.642 9.76594 8.77C9.68994 8.898 9.61794 9.044 9.54994 9.208V13H8.06794V6.844H8.93794C9.08994 6.844 9.19594 6.872 9.25594 6.928C9.31594 6.98 9.35594 7.076 9.37594 7.216L9.46594 7.912ZM15.0927 6.748C15.5487 6.748 15.9627 6.822 16.3347 6.97C16.7107 7.118 17.0307 7.328 17.2947 7.6C17.5627 7.872 17.7687 8.204 17.9127 8.596C18.0567 8.988 18.1287 9.426 18.1287 9.91C18.1287 10.398 18.0567 10.838 17.9127 11.23C17.7687 11.622 17.5627 11.956 17.2947 12.232C17.0307 12.508 16.7107 12.72 16.3347 12.868C15.9627 13.016 15.5487 13.09 15.0927 13.09C14.6327 13.09 14.2147 13.016 13.8387 12.868C13.4627 12.72 13.1407 12.508 12.8727 12.232C12.6087 11.956 12.4027 11.622 12.2547 11.23C12.1107 10.838 12.0387 10.398 12.0387 9.91C12.0387 9.426 12.1107 8.988 12.2547 8.596C12.4027 8.204 12.6087 7.872 12.8727 7.6C13.1407 7.328 13.4627 7.118 13.8387 6.97C14.2147 6.822 14.6327 6.748 15.0927 6.748ZM15.0927 11.95C15.6047 11.95 15.9827 11.778 16.2267 11.434C16.4747 11.09 16.5987 10.586 16.5987 9.922C16.5987 9.258 16.4747 8.752 16.2267 8.404C15.9827 8.056 15.6047 7.882 15.0927 7.882C14.5727 7.882 14.1867 8.058 13.9347 8.41C13.6867 8.758 13.5627 9.262 13.5627 9.922C13.5627 10.582 13.6867 11.086 13.9347 11.434C14.1867 11.778 14.5727 11.95 15.0927 11.95ZM17.1687 4.228L15.6867 5.794C15.6107 5.874 15.5367 5.93 15.4647 5.962C15.3967 5.99 15.3067 6.004 15.1947 6.004H14.3067L15.1587 4.546C15.2187 4.442 15.2887 4.364 15.3687 4.312C15.4487 4.256 15.5687 4.228 15.7287 4.228H17.1687ZM24.4741 13H23.0461C22.9381 13 22.8501 12.972 22.7821 12.916C22.7181 12.86 22.6641 12.796 22.6201 12.724L21.3181 10.582C21.2981 10.65 21.2741 10.714 21.2461 10.774C21.2221 10.834 21.1941 10.89 21.1621 10.942L20.0101 12.724C19.9661 12.792 19.9121 12.856 19.8481 12.916C19.7841 12.972 19.7041 13 19.6081 13H18.2821L20.3941 9.826L18.3661 6.844H19.7941C19.9021 6.844 19.9821 6.86 20.0341 6.892C20.0861 6.92 20.1321 6.968 20.1721 7.036L21.4621 9.088C21.5061 8.952 21.5681 8.818 21.6481 8.686L22.6861 7.066C22.7741 6.918 22.8881 6.844 23.0281 6.844H24.3901L22.3681 9.76L24.4741 13ZM26.7836 6.844V13H25.2956V6.844H26.7836ZM26.9876 5.05C26.9876 5.178 26.9616 5.298 26.9096 5.41C26.8576 5.522 26.7876 5.62 26.6996 5.704C26.6156 5.788 26.5156 5.856 26.3996 5.908C26.2836 5.956 26.1596 5.98 26.0276 5.98C25.8996 5.98 25.7776 5.956 25.6616 5.908C25.5496 5.856 25.4516 5.788 25.3676 5.704C25.2836 5.62 25.2156 5.522 25.1636 5.41C25.1156 5.298 25.0916 5.178 25.0916 5.05C25.0916 4.918 25.1156 4.794 25.1636 4.678C25.2156 4.562 25.2836 4.462 25.3676 4.378C25.4516 4.294 25.5496 4.228 25.6616 4.18C25.7776 4.128 25.8996 4.102 26.0276 4.102C26.1596 4.102 26.2836 4.128 26.3996 4.18C26.5156 4.228 26.6156 4.294 26.6996 4.378C26.7876 4.462 26.8576 4.562 26.9096 4.678C26.9616 4.794 26.9876 4.918 26.9876 5.05ZM28.2945 13V6.844H29.2005C29.3925 6.844 29.5185 6.934 29.5785 7.114L29.6745 7.57C29.7825 7.45 29.8945 7.34 30.0105 7.24C30.1305 7.14 30.2565 7.054 30.3885 6.982C30.5245 6.91 30.6685 6.854 30.8205 6.814C30.9765 6.77 31.1465 6.748 31.3305 6.748C31.7185 6.748 32.0365 6.854 32.2845 7.066C32.5365 7.274 32.7245 7.552 32.8485 7.9C32.9445 7.696 33.0645 7.522 33.2085 7.378C33.3525 7.23 33.5105 7.11 33.6825 7.018C33.8545 6.926 34.0365 6.858 34.2285 6.814C34.4245 6.77 34.6205 6.748 34.8165 6.748C35.1565 6.748 35.4585 6.8 35.7225 6.904C35.9865 7.008 36.2085 7.16 36.3885 7.36C36.5685 7.56 36.7045 7.804 36.7965 8.092C36.8925 8.38 36.9405 8.71 36.9405 9.082V13H35.4585V9.082C35.4585 8.69 35.3725 8.396 35.2005 8.2C35.0285 8 34.7765 7.9 34.4445 7.9C34.2925 7.9 34.1505 7.926 34.0185 7.978C33.8905 8.03 33.7765 8.106 33.6765 8.206C33.5805 8.302 33.5045 8.424 33.4485 8.572C33.3925 8.72 33.3645 8.89 33.3645 9.082V13H31.8765V9.082C31.8765 8.67 31.7925 8.37 31.6245 8.182C31.4605 7.994 31.2185 7.9 30.8985 7.9C30.6825 7.9 30.4805 7.954 30.2925 8.062C30.1085 8.166 29.9365 8.31 29.7765 8.494V13H28.2945ZM41.0732 6.748C41.5292 6.748 41.9432 6.822 42.3152 6.97C42.6912 7.118 43.0112 7.328 43.2752 7.6C43.5432 7.872 43.7492 8.204 43.8932 8.596C44.0372 8.988 44.1092 9.426 44.1092 9.91C44.1092 10.398 44.0372 10.838 43.8932 11.23C43.7492 11.622 43.5432 11.956 43.2752 12.232C43.0112 12.508 42.6912 12.72 42.3152 12.868C41.9432 13.016 41.5292 13.09 41.0732 13.09C40.6132 13.09 40.1952 13.016 39.8192 12.868C39.4432 12.72 39.1212 12.508 38.8532 12.232C38.5892 11.956 38.3832 11.622 38.2352 11.23C38.0912 10.838 38.0192 10.398 38.0192 9.91C38.0192 9.426 38.0912 8.988 38.2352 8.596C38.3832 8.204 38.5892 7.872 38.8532 7.6C39.1212 7.328 39.4432 7.118 39.8192 6.97C40.1952 6.822 40.6132 6.748 41.0732 6.748ZM41.0732 11.95C41.5852 11.95 41.9632 11.778 42.2072 11.434C42.4552 11.09 42.5792 10.586 42.5792 9.922C42.5792 9.258 42.4552 8.752 42.2072 8.404C41.9632 8.056 41.5852 7.882 41.0732 7.882C40.5532 7.882 40.1672 8.058 39.9152 8.41C39.6672 8.758 39.5432 9.262 39.5432 9.922C39.5432 10.582 39.6672 11.086 39.9152 11.434C40.1672 11.778 40.5532 11.95 41.0732 11.95Z" fill="#B6116E"/>
<path fill-rule="evenodd" clip-rule="evenodd" d="M50.0003 12.6558C50.0003 12.5608 50.0399 12.4665 50.1177 12.3984L55.1344 7.99966L50.1177 3.6016C49.9732 3.47496 49.96 3.25678 50.0878 3.11637C50.2149 2.9739 50.4336 2.96013 50.5774 3.08677L55.8885 7.74224C56.0372 7.87301 56.0372 8.12699 55.8885 8.25707L50.5774 12.9132C50.4336 13.0399 50.2149 13.0261 50.0878 12.8836C50.0288 12.8182 50.0003 12.737 50.0003 12.6558Z" fill="#B6116E"/>
<path fill-rule="evenodd" clip-rule="evenodd" d="M56.0003 12.6558C56.0003 12.5608 56.0399 12.4665 56.1177 12.3984L61.1344 7.99966L56.1177 3.6016C55.9732 3.47496 55.96 3.25678 56.0878 3.11637C56.2149 2.9739 56.4336 2.96013 56.5774 3.08677L61.8885 7.74224C62.0372 7.87301 62.0372 8.12699 61.8885 8.25707L56.5774 12.9132C56.4336 13.0399 56.2149 13.0261 56.0878 12.8836C56.0288 12.8182 56.0003 12.737 56.0003 12.6558Z" fill="#B6116E"/>
</svg>
