<svg width="93" height="24" viewBox="0 0 93 24" fill="none" xmlns="http://www.w3.org/2000/svg">
<path fill-rule="evenodd" clip-rule="evenodd" d="M17.7739 21.8231C18.1237 21.3957 18.0607 20.7657 17.6332 20.416L7.57915 12.1899L17.6332 3.96387C18.0607 3.61414 18.1237 2.98412 17.7739 2.55667C17.4242 2.12923 16.7942 2.06623 16.3667 2.41595L5.36673 11.416C5.1346 11.6059 4.99997 11.89 4.99997 12.1899C4.99997 12.4898 5.1346 12.7739 5.36673 12.9639L16.3667 21.9639C16.7942 22.3136 17.4242 22.2506 17.7739 21.8231Z" fill="black"/>
<path d="M52.18 2.48C52.18 2.28 52.04 2.14 51.84 2.14H50.66C50.5 2.14 50.36 2.28 50.32 2.44L46.82 15.18C46.74 15.46 46.64 15.6 46.44 15.6C46.22 15.6 46.12 15.46 46.04 15.18L42.56 2.44C42.52 2.28 42.36 2.14 42.2 2.14H41.04C40.84 2.14 40.68 2.28 40.68 2.48C40.68 2.52 40.68 2.56 40.7 2.6L44.4 15.62C44.76 16.88 45.7 17.14 46.44 17.14C47.2 17.14 48.12 16.88 48.48 15.62L52.16 2.6C52.18 2.56 52.18 2.52 52.18 2.48ZM61.7555 12.26V10.74C61.7555 7.8 60.2355 5.86 57.2955 5.86C54.3555 5.86 52.8555 7.8 52.8555 10.74V12.26C52.8555 15.2 54.3555 17.14 57.2955 17.14C60.2355 17.14 61.7555 15.2 61.7555 12.26ZM59.9955 12.26C59.9955 14.32 59.1555 15.6 57.2955 15.6C55.4155 15.6 54.6155 14.3 54.6155 12.26V10.74C54.6155 8.68 55.4355 7.4 57.2955 7.4C59.1755 7.4 59.9955 8.7 59.9955 10.74V12.26ZM66.0739 16.6V2.34C66.0739 2.12 65.9139 1.96 65.7139 1.96H64.6739C64.4539 1.96 64.3139 2.14 64.3139 2.34V16.6C64.3139 16.82 64.4739 17 64.6739 17H65.7139C65.9339 17 66.0739 16.8 66.0739 16.6ZM74.8367 16.7V16C74.8367 15.8 74.6967 15.72 74.4167 15.72H73.2967C72.4967 15.72 72.2167 15.56 72.2167 14.46V7.48H74.3767C74.5967 7.48 74.7767 7.3 74.7767 7.08V6.4C74.7767 6.18 74.5967 6 74.3767 6H72.2167V3.82C72.2167 3.62 72.0767 3.48 71.9167 3.48C71.8967 3.48 71.8767 3.48 71.8567 3.48L70.8167 3.64C70.5967 3.68 70.4567 3.84 70.4567 4.04V6H68.5167C68.2967 6 68.1367 6.14 68.1367 6.36V6.9C68.1367 7.12 68.2967 7.24 68.5167 7.26L70.4567 7.48V14.46C70.4567 16.66 71.3367 17.14 73.1767 17.14C73.5567 17.14 74.0767 17.1 74.4767 17.04C74.7367 17 74.8367 16.88 74.8367 16.7ZM84.352 16.6V9.62C84.352 7.26 83.232 5.86 80.452 5.86C79.092 5.86 78.172 5.98 77.352 6.12C77.072 6.16 76.932 6.28 76.932 6.5V7.2C76.932 7.46 77.112 7.52 77.292 7.52C77.332 7.52 77.352 7.52 77.392 7.52C78.192 7.44 79.152 7.36 80.452 7.36C82.012 7.36 82.592 7.94 82.592 9.62V10.42H81.112C77.552 10.42 76.292 11.5 76.292 13.66V13.9C76.292 16.4 77.852 17.14 79.552 17.14C80.672 17.14 81.672 16.72 82.632 16.16V16.6C82.632 16.82 82.812 17 83.032 17H83.952C84.172 17 84.352 16.82 84.352 16.6ZM82.592 14.9C81.632 15.42 80.812 15.7 79.892 15.7C78.732 15.7 78.052 15.32 78.052 13.88V13.64C78.052 12.22 78.692 11.68 81.112 11.68H82.592V14.9ZM92.0031 7.04V6.22C92.0031 5.98 91.8631 5.86 91.5831 5.86C90.6831 5.86 89.7631 6.12 88.7631 6.82V6.4C88.7631 6.18 88.6031 6 88.3831 6H87.4431C87.2231 6 87.0631 6.18 87.0631 6.4V16.6C87.0631 16.82 87.2431 17 87.4431 17H88.4231C88.6431 17 88.8231 16.8 88.8231 16.6V8.22C89.8231 7.62 90.6631 7.38 91.5831 7.38C91.8631 7.38 92.0031 7.26 92.0031 7.04Z" fill="#111111"/>
</svg>
